{
  "accessors": [
    {
      "bufferView": 2,
      "componentType": 5126,
      "count": 16468,
      "max": [
        0.3513116240501404,
        0.37374746799468994,
        1.229333758354187
      ],
      "min": [
        -0.3513116240501404,
        -0.40530645847320557,
        -0.22137662768363953
      ],
      "type": "VEC3"
    },
    {
      "bufferView": 2,
      "byteOffset": 197616,
      "componentType": 5126,
      "count": 16468,
      "max": [
        1.0,
        1.0,
        1.0
      ],
      "min": [
        -1.0,
        -1.0,
        -1.0
      ],
      "type": "VEC3"
    },
    {
      "bufferView": 3,
      "componentType": 5126,
      "count": 16468,
      "max": [
        1.0,
        1.0,
        1.0,
        1.0
      ],
      "min": [
        -1.0,
        -0.9999998211860657,
        -1.0,
        -1.0
      ],
      "type": "VEC4"
    },
    {
      "bufferView": 1,
      "componentType": 5126,
      "count": 16468,
      "max": [
        0.9924625754356384,
        0.9985142350196838
      ],
      "min": [
        0.0014856737107038498,
        0.0014857613714411855
      ],
      "type": "VEC2"
    },
    {
      "bufferView": 1,
      "byteOffset": 131744,
      "componentType": 5126,
      "count": 16468,
      "max": [
        0.9924625754356384,
        0.9985142350196838
      ],
      "min": [
        0.0014856737107038498,
        0.0014857613714411855
      ],
      "type": "VEC2"
    },
    {
      "bufferView": 1,
      "byteOffset": 263488,
      "componentType": 5126,
      "count": 16468,
      "max": [
        0.9924625754356384,
        0.9985142350196838
      ],
      "min": [
        0.0014856737107038498,
        0.0014857613714411855
      ],
      "type": "VEC2"
    },
    {
      "bufferView": 0,
      "componentType": 5125,
      "count": 52761,
      "type": "SCALAR"
    }
  ],
  "asset": {
    "extras": {
      "author": "H10_Official (https://sketchfab.com/H10_Official)",
      "license": "CC-BY-NC-4.0 (http://creativecommons.org/licenses/by-nc/4.0/)",
      "source": "https://sketchfab.com/3d-models/fire-extinguisher-large-game-ready-343f2e57b33b498381249d2d853cd4d3",
      "title": "Fire Extinguisher - Large - Game Ready"
    },
    "generator": "Sketchfab-16.16.0",
    "version": "2.0"
  },
  "bufferViews": [
    {
      "buffer": 0,
      "byteLength": 211044,
      "name": "floatBufferViews",
      "target": 34963
    },
    {
      "buffer": 0,
      "byteLength": 395232,
      "byteOffset": 211044,
      "byteStride": 8,
      "name": "floatBufferViews",
      "target": 34962
    },
    {
      "buffer": 0,
      "byteLength": 395232,
      "byteOffset": 606276,
      "byteStride": 12,
      "name": "floatBufferViews",
      "target": 34962
    },
    {
      "buffer": 0,
      "byteLength": 263488,
      "byteOffset": 1001508,
      "byteStride": 16,
      "name": "floatBufferViews",
      "target": 34962
    }
  ],
  "buffers": [
    {
      "byteLength": 1264996,
      "uri": "scene.bin"
    }
  ],
  "images": [
    {
      "uri": "textures/Large-Export_baseColor.jpeg"
    },
    {
      "uri": "textures/Large-Export_metallicRoughness.png"
    },
    {
      "uri": "textures/Large-Export_normal.jpeg"
    }
  ],
  "materials": [
    {
      "doubleSided": true,
      "name": "Large-Export",
      "normalTexture": {
        "index": 2
      },
      "pbrMetallicRoughness": {
        "baseColorTexture": {
          "index": 0
        },
        "metallicRoughnessTexture": {
          "index": 1
        }
      }
    }
  ],
  "meshes": [
    {
      "name": "Large-Export_Large-Export_0",
      "primitives": [
        {
          "attributes": {
            "NORMAL": 1,
            "POSITION": 0,
            "TANGENT": 2,
            "TEXCOORD_0": 3,
            "TEXCOORD_1": 4,
            "TEXCOORD_2": 5
          },
          "indices": 6,
          "material": 0,
          "mode": 4
        }
      ]
    }
  ],
  "nodes": [
    {
      "children": [
        1
      ],
      "matrix": [
        0.5979807376861572,
        1.6942431911912985e-16,
        -6.294224366585768e-17,
        0.0,
        6.299383639541286e-17,
        -0.0001821048818357744,
        0.5979807020437278,
        0.0,
        1.694051350761107e-16,
        -0.5979807020437278,
        -0.0001821048818357744,
        0.0,
        0.0,
        0.0,
        0.0,
        1.0
      ],
      "name": "Sketchfab_model"
    },
    {
      "children": [
        2
      ],
      "matrix": [
        0.009999999776482582,
        0.0,
        0.0,
        0.0,
        0.0,
        -0.009999999776482582,
        0.0,
        0.0,
        0.0,
        0.0,
        -0.009999999776482582,
        0.0,
        0.0,
        0.0,
        0.0,
        1.0
      ],
      "name": "4ba95d85fcfb4d689bcb6945095bdfb7.fbx"
    },
    {
      "children": [
        3
      ],
      "name": "RootNode"
    },
    {
      "children": [
        4
      ],
      "matrix": [
        100.0,
        0.0,
        0.0,
        0.0,
        0.0,
        100.0,
        0.0,
        0.0,
        0.0,
        0.0,
        100.0,
        0.0,
        0.0,
        0.0,
        0.0,
        1.0
      ],
      "name": "Large-Export"
    },
    {
      "mesh": 0,
      "name": "Large-Export_Large-Export_0"
    }
  ],
  "samplers": [
    {
      "magFilter": 9729,
      "minFilter": 9987,
      "wrapS": 10497,
      "wrapT": 10497
    }
  ],
  "scene": 0,
  "scenes": [
    {
      "name": "Sketchfab_Scene",
      "nodes": [
        0
      ]
    }
  ],
  "textures": [
    {
      "sampler": 0,
      "source": 0
    },
    {
      "sampler": 0,
      "source": 1
    },
    {
      "sampler": 0,
      "source": 2
    }
  ]
}
