{
	"asset":{
		"generator":"Khronos glTF Blender I/O v4.4.56",
		"version":"2.0"
	},
	"extensionsUsed":[
		"KHR_materials_transmission"
	],
	"scene":0,
	"scenes":[
		{
			"name":"Scene",
			"nodes":[
				30
			]
		}
	],
	"nodes":[
		{
			"mesh":0,
			"name":"Cylinder_fire-extinguisher_0",
			"rotation":[
				0.018505524843931198,
				-0.03185804560780525,
				-0.03905996307730675,
				0.998557448387146
			],
			"translation":[
				-0.2770354151725769,
				2.421755790710449,
				0
			]
		},
		{
			"children":[
				0
			],
			"name":"Cylinder"
		},
		{
			"mesh":1,
			"name":"Cylinder.001_fire-extinguisher_0"
		},
		{
			"children":[
				2
			],
			"name":"Cylinder.001"
		},
		{
			"mesh":2,
			"name":"Cylinder.002_fire-extinguisher_0"
		},
		{
			"children":[
				4
			],
			"name":"Cylinder.002"
		},
		{
			"mesh":3,
			"name":"Cylinder.004_fire-extinguisher_0"
		},
		{
			"children":[
				6
			],
			"name":"Cylinder.004"
		},
		{
			"mesh":4,
			"name":"Cylinder.005_fire-extinguisher_0"
		},
		{
			"mesh":5,
			"name":"Plane_fire-extinguisher_0"
		},
		{
			"children":[
				9
			],
			"name":"Plane"
		},
		{
			"children":[
				8,
				10
			],
			"name":"Cylinder.005"
		},
		{
			"mesh":6,
			"name":"Cylinder.006_fire-extinguisher_0"
		},
		{
			"children":[
				12
			],
			"name":"Cylinder.006"
		},
		{
			"mesh":7,
			"name":"Handle_bottom_fire-extinguisher",
			"rotation":[
				0.003745890920981765,
				-0.02667146734893322,
				0.13903021812438965,
				0.9899219274520874
			],
			"translation":[
				0,
				2.4696688652038574,
				0
			]
		},
		{
			"children":[
				14
			],
			"name":"Handle_bottom"
		},
		{
			"mesh":8,
			"name":"Handle_top_fire-extinguisher"
		},
		{
			"children":[
				16
			],
			"name":"Handle_top"
		},
		{
			"mesh":9,
			"name":"Nozzle_fire-extinguisher"
		},
		{
			"children":[
				18
			],
			"mesh":10,
			"name":"Hose_fire-extinguisher",
			"rotation":[
				-0.00364083144813776,
				0.006195382680743933,
				0.007796855643391609,
				0.9999437928199768
			],
			"translation":[
				-0.2696194648742676,
				2.4486382007598877,
				0
			]
		},
		{
			"children":[
				19
			],
			"name":"Hose"
		},
		{
			"mesh":11,
			"name":"Manometr_fire-extinguisher"
		},
		{
			"children":[
				21
			],
			"name":"Manometr"
		},
		{
			"name":"Nozzle"
		},
		{
			"mesh":12,
			"name":"Safety_pin_fire-extinguisher",
			"translation":[
				0.004774422384798527,
				-0.00407919567078352,
				-0.03749530017375946
			]
		},
		{
			"children":[
				24
			],
			"name":"Safety_pin"
		},
		{
			"mesh":13,
			"name":"Stamp_fire-extinguisher",
			"translation":[
				0.004774422384798527,
				-0.00407919567078352,
				-0.03749530017375946
			]
		},
		{
			"children":[
				26
			],
			"name":"Stamp"
		},
		{
			"children":[
				1,
				3,
				5,
				7,
				11,
				13,
				15,
				17,
				20,
				22,
				23,
				25,
				27
			],
			"name":"RootNode"
		},
		{
			"children":[
				28
			],
			"name":"a2d4a65233514a51bb27b023750cfc55.fbx"
		},
		{
			"children":[
				29
			],
			"name":"Sketchfab_model"
		}
	],
	"animations":[
		{
			"channels":[
				{
					"sampler":0,
					"target":{
						"node":0,
						"path":"translation"
					}
				},
				{
					"sampler":1,
					"target":{
						"node":0,
						"path":"rotation"
					}
				}
			],
			"name":"Cylinder_fire-extinguisher_0Action",
			"samplers":[
				{
					"input":56,
					"interpolation":"STEP",
					"output":57
				},
				{
					"input":56,
					"interpolation":"STEP",
					"output":58
				}
			]
		},
		{
			"channels":[
				{
					"sampler":0,
					"target":{
						"node":14,
						"path":"translation"
					}
				},
				{
					"sampler":1,
					"target":{
						"node":14,
						"path":"rotation"
					}
				}
			],
			"name":"Handle_bottom_fire-extinguisherAction",
			"samplers":[
				{
					"input":59,
					"interpolation":"STEP",
					"output":60
				},
				{
					"input":61,
					"interpolation":"LINEAR",
					"output":62
				}
			]
		},
		{
			"channels":[
				{
					"sampler":0,
					"target":{
						"node":19,
						"path":"translation"
					}
				},
				{
					"sampler":1,
					"target":{
						"node":19,
						"path":"rotation"
					}
				}
			],
			"name":"Hose_fire-extinguisherAction",
			"samplers":[
				{
					"input":63,
					"interpolation":"LINEAR",
					"output":64
				},
				{
					"input":63,
					"interpolation":"LINEAR",
					"output":65
				}
			]
		},
		{
			"channels":[
				{
					"sampler":0,
					"target":{
						"node":24,
						"path":"translation"
					}
				}
			],
			"name":"Safety_pin_fire-extinguisherAction",
			"samplers":[
				{
					"input":66,
					"interpolation":"LINEAR",
					"output":67
				}
			]
		},
		{
			"channels":[
				{
					"sampler":0,
					"target":{
						"node":26,
						"path":"translation"
					}
				}
			],
			"name":"Stamp_fire-extinguisherAction",
			"samplers":[
				{
					"input":66,
					"interpolation":"LINEAR",
					"output":68
				}
			]
		}
	],
	"materials":[
		{
			"alphaMode":"BLEND",
			"doubleSided":true,
			"extensions":{
				"KHR_materials_transmission":{
					"transmissionFactor":1,
					"transmissionTexture":{
						"index":0
					}
				}
			},
			"name":"fire-extinguisher",
			"normalTexture":{
				"index":1
			},
			"occlusionTexture":{
				"index":2
			},
			"pbrMetallicRoughness":{
				"baseColorTexture":{
					"index":3
				},
				"metallicRoughnessTexture":{
					"index":2
				}
			}
		}
	],
	"meshes":[
		{
			"name":"Cylinder_fire-extinguisher_0",
			"primitives":[
				{
					"attributes":{
						"POSITION":0,
						"NORMAL":1,
						"TEXCOORD_0":2
					},
					"indices":3,
					"material":0
				}
			]
		},
		{
			"name":"Cylinder.001_fire-extinguisher_0",
			"primitives":[
				{
					"attributes":{
						"POSITION":4,
						"NORMAL":5,
						"TEXCOORD_0":6
					},
					"indices":7,
					"material":0
				}
			]
		},
		{
			"name":"Cylinder.002_fire-extinguisher_0",
			"primitives":[
				{
					"attributes":{
						"POSITION":8,
						"NORMAL":9,
						"TEXCOORD_0":10
					},
					"indices":11,
					"material":0
				}
			]
		},
		{
			"name":"Cylinder.004_fire-extinguisher_0",
			"primitives":[
				{
					"attributes":{
						"POSITION":12,
						"NORMAL":13,
						"TEXCOORD_0":14
					},
					"indices":15,
					"material":0
				}
			]
		},
		{
			"name":"Cylinder.005_fire-extinguisher_0",
			"primitives":[
				{
					"attributes":{
						"POSITION":16,
						"NORMAL":17,
						"TEXCOORD_0":18
					},
					"indices":19,
					"material":0
				}
			]
		},
		{
			"name":"Plane_fire-extinguisher_0",
			"primitives":[
				{
					"attributes":{
						"POSITION":20,
						"NORMAL":21,
						"TEXCOORD_0":22
					},
					"indices":23,
					"material":0
				}
			]
		},
		{
			"name":"Cylinder.006_fire-extinguisher_0",
			"primitives":[
				{
					"attributes":{
						"POSITION":24,
						"NORMAL":25,
						"TEXCOORD_0":26
					},
					"indices":27,
					"material":0
				}
			]
		},
		{
			"name":"Cube.001_fire-extinguisher_0",
			"primitives":[
				{
					"attributes":{
						"POSITION":28,
						"NORMAL":29,
						"TEXCOORD_0":30
					},
					"indices":31,
					"material":0
				}
			]
		},
		{
			"name":"Cube_fire-extinguisher_0",
			"primitives":[
				{
					"attributes":{
						"POSITION":32,
						"NORMAL":33,
						"TEXCOORD_0":34
					},
					"indices":35,
					"material":0
				}
			]
		},
		{
			"name":"Cylinder.003_fire-extinguisher_0",
			"primitives":[
				{
					"attributes":{
						"POSITION":36,
						"NORMAL":37,
						"TEXCOORD_0":38
					},
					"indices":39,
					"material":0
				}
			]
		},
		{
			"name":"BezierCurve_fire-extinguisher_0",
			"primitives":[
				{
					"attributes":{
						"POSITION":40,
						"NORMAL":41,
						"TEXCOORD_0":42
					},
					"indices":43,
					"material":0
				}
			]
		},
		{
			"name":"Cylinder.007_fire-extinguisher_0",
			"primitives":[
				{
					"attributes":{
						"POSITION":44,
						"NORMAL":45,
						"TEXCOORD_0":46
					},
					"indices":47,
					"material":0
				}
			]
		},
		{
			"name":"Plane.001_fire-extinguisher_0",
			"primitives":[
				{
					"attributes":{
						"POSITION":48,
						"NORMAL":49,
						"TEXCOORD_0":50
					},
					"indices":51,
					"material":0
				}
			]
		},
		{
			"name":"Plane.002_fire-extinguisher_0",
			"primitives":[
				{
					"attributes":{
						"POSITION":52,
						"NORMAL":53,
						"TEXCOORD_0":54
					},
					"indices":55,
					"material":0
				}
			]
		}
	],
	"textures":[
		{
			"sampler":0,
			"source":0
		},
		{
			"sampler":0,
			"source":1
		},
		{
			"sampler":0,
			"source":2
		},
		{
			"sampler":0,
			"source":3
		}
	],
	"images":[
		{
			"mimeType":"image/png",
			"name":"fire-extinguisher_transmission",
			"uri":"fire-extinguisher_transmission.png"
		},
		{
			"mimeType":"image/png",
			"name":"fire-extinguisher_normal",
			"uri":"fire-extinguisher_normal.png"
		},
		{
			"mimeType":"image/png",
			"name":"fire-extinguisher_metallicRoughness",
			"uri":"fire-extinguisher_metallicRoughness.png"
		},
		{
			"mimeType":"image/png",
			"name":"fire-extinguisher_baseColor",
			"uri":"fire-extinguisher_baseColor.png"
		}
	],
	"accessors":[
		{
			"bufferView":0,
			"componentType":5126,
			"count":1054,
			"max":[
				0.8438953757286072,
				-0.08845669776201248,
				0.44288766384124756
			],
			"min":[
				-0.065589040517807,
				-2.445446491241455,
				-0.3809225857257843
			],
			"type":"VEC3"
		},
		{
			"bufferView":1,
			"componentType":5126,
			"count":1054,
			"type":"VEC3"
		},
		{
			"bufferView":2,
			"componentType":5126,
			"count":1054,
			"type":"VEC2"
		},
		{
			"bufferView":3,
			"componentType":5123,
			"count":4020,
			"type":"SCALAR"
		},
		{
			"bufferView":4,
			"componentType":5126,
			"count":513,
			"max":[
				0.12225446105003357,
				2.5899198055267334,
				0.12143684178590775
			],
			"min":[
				-0.12062063813209534,
				2.293640613555908,
				-0.12143830209970474
			],
			"type":"VEC3"
		},
		{
			"bufferView":5,
			"componentType":5126,
			"count":513,
			"type":"VEC3"
		},
		{
			"bufferView":6,
			"componentType":5126,
			"count":513,
			"type":"VEC2"
		},
		{
			"bufferView":7,
			"componentType":5123,
			"count":1470,
			"type":"SCALAR"
		},
		{
			"bufferView":8,
			"componentType":5126,
			"count":299,
			"max":[
				-0.1101837083697319,
				2.4985265731811523,
				0.08322654664516449
			],
			"min":[
				-0.30827587842941284,
				2.3543739318847656,
				-0.08322654664516449
			],
			"type":"VEC3"
		},
		{
			"bufferView":9,
			"componentType":5126,
			"count":299,
			"type":"VEC3"
		},
		{
			"bufferView":10,
			"componentType":5126,
			"count":299,
			"type":"VEC2"
		},
		{
			"bufferView":11,
			"componentType":5123,
			"count":678,
			"type":"SCALAR"
		},
		{
			"bufferView":12,
			"componentType":5126,
			"count":354,
			"max":[
				0.38709723949432373,
				1.0610958337783813,
				0.3870972990989685
			],
			"min":[
				-0.5015755295753479,
				0.9612619280815125,
				-0.3870972990989685
			],
			"type":"VEC3"
		},
		{
			"bufferView":13,
			"componentType":5126,
			"count":354,
			"type":"VEC3"
		},
		{
			"bufferView":14,
			"componentType":5126,
			"count":354,
			"type":"VEC2"
		},
		{
			"bufferView":15,
			"componentType":5123,
			"count":1620,
			"type":"SCALAR"
		},
		{
			"bufferView":16,
			"componentType":5126,
			"count":354,
			"max":[
				0.385466992855072,
				1.7731406688690186,
				0.3994602560997009
			],
			"min":[
				-0.385466992855072,
				1.6551508903503418,
				-0.3854670226573944
			],
			"type":"VEC3"
		},
		{
			"bufferView":17,
			"componentType":5126,
			"count":354,
			"type":"VEC3"
		},
		{
			"bufferView":18,
			"componentType":5126,
			"count":354,
			"type":"VEC2"
		},
		{
			"bufferView":19,
			"componentType":5123,
			"count":1632,
			"type":"SCALAR"
		},
		{
			"bufferView":20,
			"componentType":5126,
			"count":208,
			"max":[
				-0.10396711528301239,
				1.8084303140640259,
				0.3926805853843689
			],
			"min":[
				-0.28533032536506653,
				1.6267424821853638,
				0.27685296535491943
			],
			"type":"VEC3"
		},
		{
			"bufferView":21,
			"componentType":5126,
			"count":208,
			"type":"VEC3"
		},
		{
			"bufferView":22,
			"componentType":5126,
			"count":208,
			"type":"VEC2"
		},
		{
			"bufferView":23,
			"componentType":5123,
			"count":1080,
			"type":"SCALAR"
		},
		{
			"bufferView":24,
			"componentType":5126,
			"count":348,
			"max":[
				0.1287960559129715,
				2.510589122772217,
				0.22994601726531982
			],
			"min":[
				-0.1287960559129715,
				2.2529971599578857,
				0.08547092974185944
			],
			"type":"VEC3"
		},
		{
			"bufferView":25,
			"componentType":5126,
			"count":348,
			"type":"VEC3"
		},
		{
			"bufferView":26,
			"componentType":5126,
			"count":348,
			"type":"VEC2"
		},
		{
			"bufferView":27,
			"componentType":5123,
			"count":1290,
			"type":"SCALAR"
		},
		{
			"bufferView":28,
			"componentType":5126,
			"count":266,
			"max":[
				0.7487650513648987,
				0.0357363224029541,
				0.06080827862024307
			],
			"min":[
				-0.09382785111665726,
				-0.38349318504333496,
				-0.06080823019146919
			],
			"type":"VEC3"
		},
		{
			"bufferView":29,
			"componentType":5126,
			"count":266,
			"type":"VEC3"
		},
		{
			"bufferView":30,
			"componentType":5126,
			"count":266,
			"type":"VEC2"
		},
		{
			"bufferView":31,
			"componentType":5123,
			"count":1356,
			"type":"SCALAR"
		},
		{
			"bufferView":32,
			"componentType":5126,
			"count":152,
			"max":[
				0.6323873400688171,
				2.7574374675750732,
				0.07388552278280258
			],
			"min":[
				-0.12178291380405426,
				2.5129637718200684,
				-0.0738854631781578
			],
			"type":"VEC3"
		},
		{
			"bufferView":33,
			"componentType":5126,
			"count":152,
			"type":"VEC3"
		},
		{
			"bufferView":34,
			"componentType":5126,
			"count":152,
			"type":"VEC2"
		},
		{
			"bufferView":35,
			"componentType":5123,
			"count":612,
			"type":"SCALAR"
		},
		{
			"bufferView":36,
			"componentType":5126,
			"count":154,
			"max":[
				-0.10832422971725464,
				-1.5147936344146729,
				0.07666326314210892
			],
			"min":[
				-0.25688546895980835,
				-2.063394069671631,
				-0.071940116584301
			],
			"type":"VEC3"
		},
		{
			"bufferView":37,
			"componentType":5126,
			"count":154,
			"type":"VEC3"
		},
		{
			"bufferView":38,
			"componentType":5126,
			"count":154,
			"type":"VEC2"
		},
		{
			"bufferView":39,
			"componentType":5123,
			"count":420,
			"type":"SCALAR"
		},
		{
			"bufferView":40,
			"componentType":5126,
			"count":207,
			"max":[
				-0.025405406951904297,
				0.03202080726623535,
				0.054000262171030045
			],
			"min":[
				-0.440762460231781,
				-1.547223687171936,
				-0.05400000140070915
			],
			"type":"VEC3"
		},
		{
			"bufferView":41,
			"componentType":5126,
			"count":207,
			"type":"VEC3"
		},
		{
			"bufferView":42,
			"componentType":5126,
			"count":207,
			"type":"VEC2"
		},
		{
			"bufferView":43,
			"componentType":5123,
			"count":1056,
			"type":"SCALAR"
		},
		{
			"bufferView":44,
			"componentType":5126,
			"count":192,
			"max":[
				0.11212347447872162,
				2.4939165115356445,
				0.24680231511592865
			],
			"min":[
				-0.11212347447872162,
				2.269669771194458,
				0.22483409941196442
			],
			"type":"VEC3"
		},
		{
			"bufferView":45,
			"componentType":5126,
			"count":192,
			"type":"VEC3"
		},
		{
			"bufferView":46,
			"componentType":5126,
			"count":192,
			"type":"VEC2"
		},
		{
			"bufferView":47,
			"componentType":5123,
			"count":1074,
			"type":"SCALAR"
		},
		{
			"bufferView":48,
			"componentType":5126,
			"count":455,
			"max":[
				0.2628364861011505,
				2.6204028129577637,
				0.2804725170135498
			],
			"min":[
				0.04042969271540642,
				2.5308730602264404,
				-0.20636802911758423
			],
			"type":"VEC3"
		},
		{
			"bufferView":49,
			"componentType":5126,
			"count":455,
			"type":"VEC3"
		},
		{
			"bufferView":50,
			"componentType":5126,
			"count":455,
			"type":"VEC2"
		},
		{
			"bufferView":51,
			"componentType":5123,
			"count":2376,
			"type":"SCALAR"
		},
		{
			"bufferView":52,
			"componentType":5126,
			"count":755,
			"max":[
				0.240686297416687,
				2.7100422382354736,
				0.3024468719959259
			],
			"min":[
				0.09115640819072723,
				2.4205574989318848,
				-0.09599505364894867
			],
			"type":"VEC3"
		},
		{
			"bufferView":53,
			"componentType":5126,
			"count":755,
			"type":"VEC3"
		},
		{
			"bufferView":54,
			"componentType":5126,
			"count":755,
			"type":"VEC2"
		},
		{
			"bufferView":55,
			"componentType":5123,
			"count":1572,
			"type":"SCALAR"
		},
		{
			"bufferView":56,
			"componentType":5126,
			"count":2,
			"max":[
				1.25
			],
			"min":[
				0.8333333333333334
			],
			"type":"SCALAR"
		},
		{
			"bufferView":57,
			"componentType":5126,
			"count":2,
			"type":"VEC3"
		},
		{
			"bufferView":58,
			"componentType":5126,
			"count":2,
			"type":"VEC4"
		},
		{
			"bufferView":59,
			"componentType":5126,
			"count":2,
			"max":[
				1.4583333333333333
			],
			"min":[
				1.25
			],
			"type":"SCALAR"
		},
		{
			"bufferView":60,
			"componentType":5126,
			"count":2,
			"type":"VEC3"
		},
		{
			"bufferView":61,
			"componentType":5126,
			"count":6,
			"max":[
				1.4583333333333333
			],
			"min":[
				1.25
			],
			"type":"SCALAR"
		},
		{
			"bufferView":62,
			"componentType":5126,
			"count":6,
			"type":"VEC4"
		},
		{
			"bufferView":63,
			"componentType":5126,
			"count":11,
			"max":[
				1.2083333333333333
			],
			"min":[
				0.7916666666666666
			],
			"type":"SCALAR"
		},
		{
			"bufferView":64,
			"componentType":5126,
			"count":11,
			"type":"VEC3"
		},
		{
			"bufferView":65,
			"componentType":5126,
			"count":11,
			"type":"VEC4"
		},
		{
			"bufferView":66,
			"componentType":5126,
			"count":11,
			"max":[
				0.4166666666666667
			],
			"min":[
				0
			],
			"type":"SCALAR"
		},
		{
			"bufferView":67,
			"componentType":5126,
			"count":11,
			"type":"VEC3"
		},
		{
			"bufferView":68,
			"componentType":5126,
			"count":11,
			"type":"VEC3"
		}
	],
	"bufferViews":[
		{
			"buffer":0,
			"byteLength":12648,
			"byteOffset":0,
			"target":34962
		},
		{
			"buffer":0,
			"byteLength":12648,
			"byteOffset":12648,
			"target":34962
		},
		{
			"buffer":0,
			"byteLength":8432,
			"byteOffset":25296,
			"target":34962
		},
		{
			"buffer":0,
			"byteLength":8040,
			"byteOffset":33728,
			"target":34963
		},
		{
			"buffer":0,
			"byteLength":6156,
			"byteOffset":41768,
			"target":34962
		},
		{
			"buffer":0,
			"byteLength":6156,
			"byteOffset":47924,
			"target":34962
		},
		{
			"buffer":0,
			"byteLength":4104,
			"byteOffset":54080,
			"target":34962
		},
		{
			"buffer":0,
			"byteLength":2940,
			"byteOffset":58184,
			"target":34963
		},
		{
			"buffer":0,
			"byteLength":3588,
			"byteOffset":61124,
			"target":34962
		},
		{
			"buffer":0,
			"byteLength":3588,
			"byteOffset":64712,
			"target":34962
		},
		{
			"buffer":0,
			"byteLength":2392,
			"byteOffset":68300,
			"target":34962
		},
		{
			"buffer":0,
			"byteLength":1356,
			"byteOffset":70692,
			"target":34963
		},
		{
			"buffer":0,
			"byteLength":4248,
			"byteOffset":72048,
			"target":34962
		},
		{
			"buffer":0,
			"byteLength":4248,
			"byteOffset":76296,
			"target":34962
		},
		{
			"buffer":0,
			"byteLength":2832,
			"byteOffset":80544,
			"target":34962
		},
		{
			"buffer":0,
			"byteLength":3240,
			"byteOffset":83376,
			"target":34963
		},
		{
			"buffer":0,
			"byteLength":4248,
			"byteOffset":86616,
			"target":34962
		},
		{
			"buffer":0,
			"byteLength":4248,
			"byteOffset":90864,
			"target":34962
		},
		{
			"buffer":0,
			"byteLength":2832,
			"byteOffset":95112,
			"target":34962
		},
		{
			"buffer":0,
			"byteLength":3264,
			"byteOffset":97944,
			"target":34963
		},
		{
			"buffer":0,
			"byteLength":2496,
			"byteOffset":101208,
			"target":34962
		},
		{
			"buffer":0,
			"byteLength":2496,
			"byteOffset":103704,
			"target":34962
		},
		{
			"buffer":0,
			"byteLength":1664,
			"byteOffset":106200,
			"target":34962
		},
		{
			"buffer":0,
			"byteLength":2160,
			"byteOffset":107864,
			"target":34963
		},
		{
			"buffer":0,
			"byteLength":4176,
			"byteOffset":110024,
			"target":34962
		},
		{
			"buffer":0,
			"byteLength":4176,
			"byteOffset":114200,
			"target":34962
		},
		{
			"buffer":0,
			"byteLength":2784,
			"byteOffset":118376,
			"target":34962
		},
		{
			"buffer":0,
			"byteLength":2580,
			"byteOffset":121160,
			"target":34963
		},
		{
			"buffer":0,
			"byteLength":3192,
			"byteOffset":123740,
			"target":34962
		},
		{
			"buffer":0,
			"byteLength":3192,
			"byteOffset":126932,
			"target":34962
		},
		{
			"buffer":0,
			"byteLength":2128,
			"byteOffset":130124,
			"target":34962
		},
		{
			"buffer":0,
			"byteLength":2712,
			"byteOffset":132252,
			"target":34963
		},
		{
			"buffer":0,
			"byteLength":1824,
			"byteOffset":134964,
			"target":34962
		},
		{
			"buffer":0,
			"byteLength":1824,
			"byteOffset":136788,
			"target":34962
		},
		{
			"buffer":0,
			"byteLength":1216,
			"byteOffset":138612,
			"target":34962
		},
		{
			"buffer":0,
			"byteLength":1224,
			"byteOffset":139828,
			"target":34963
		},
		{
			"buffer":0,
			"byteLength":1848,
			"byteOffset":141052,
			"target":34962
		},
		{
			"buffer":0,
			"byteLength":1848,
			"byteOffset":142900,
			"target":34962
		},
		{
			"buffer":0,
			"byteLength":1232,
			"byteOffset":144748,
			"target":34962
		},
		{
			"buffer":0,
			"byteLength":840,
			"byteOffset":145980,
			"target":34963
		},
		{
			"buffer":0,
			"byteLength":2484,
			"byteOffset":146820,
			"target":34962
		},
		{
			"buffer":0,
			"byteLength":2484,
			"byteOffset":149304,
			"target":34962
		},
		{
			"buffer":0,
			"byteLength":1656,
			"byteOffset":151788,
			"target":34962
		},
		{
			"buffer":0,
			"byteLength":2112,
			"byteOffset":153444,
			"target":34963
		},
		{
			"buffer":0,
			"byteLength":2304,
			"byteOffset":155556,
			"target":34962
		},
		{
			"buffer":0,
			"byteLength":2304,
			"byteOffset":157860,
			"target":34962
		},
		{
			"buffer":0,
			"byteLength":1536,
			"byteOffset":160164,
			"target":34962
		},
		{
			"buffer":0,
			"byteLength":2148,
			"byteOffset":161700,
			"target":34963
		},
		{
			"buffer":0,
			"byteLength":5460,
			"byteOffset":163848,
			"target":34962
		},
		{
			"buffer":0,
			"byteLength":5460,
			"byteOffset":169308,
			"target":34962
		},
		{
			"buffer":0,
			"byteLength":3640,
			"byteOffset":174768,
			"target":34962
		},
		{
			"buffer":0,
			"byteLength":4752,
			"byteOffset":178408,
			"target":34963
		},
		{
			"buffer":0,
			"byteLength":9060,
			"byteOffset":183160,
			"target":34962
		},
		{
			"buffer":0,
			"byteLength":9060,
			"byteOffset":192220,
			"target":34962
		},
		{
			"buffer":0,
			"byteLength":6040,
			"byteOffset":201280,
			"target":34962
		},
		{
			"buffer":0,
			"byteLength":3144,
			"byteOffset":207320,
			"target":34963
		},
		{
			"buffer":0,
			"byteLength":8,
			"byteOffset":210464
		},
		{
			"buffer":0,
			"byteLength":24,
			"byteOffset":210472
		},
		{
			"buffer":0,
			"byteLength":32,
			"byteOffset":210496
		},
		{
			"buffer":0,
			"byteLength":8,
			"byteOffset":210528
		},
		{
			"buffer":0,
			"byteLength":24,
			"byteOffset":210536
		},
		{
			"buffer":0,
			"byteLength":24,
			"byteOffset":210560
		},
		{
			"buffer":0,
			"byteLength":96,
			"byteOffset":210584
		},
		{
			"buffer":0,
			"byteLength":44,
			"byteOffset":210680
		},
		{
			"buffer":0,
			"byteLength":132,
			"byteOffset":210724
		},
		{
			"buffer":0,
			"byteLength":176,
			"byteOffset":210856
		},
		{
			"buffer":0,
			"byteLength":44,
			"byteOffset":211032
		},
		{
			"buffer":0,
			"byteLength":132,
			"byteOffset":211076
		},
		{
			"buffer":0,
			"byteLength":132,
			"byteOffset":211208
		}
	],
	"samplers":[
		{
			"magFilter":9729,
			"minFilter":9987
		}
	],
	"buffers":[
		{
			"byteLength":211340,
			"uri":"scene.bin"
		}
	]
}
